<?xml version="1.0" encoding="UTF-8" standalone="no"?>
<!-- Created with Inkscape (http://www.inkscape.org/) -->

<svg
   xmlns:dc="http://purl.org/dc/elements/1.1/"
   xmlns:cc="http://creativecommons.org/ns#"
   xmlns:rdf="http://www.w3.org/1999/02/22-rdf-syntax-ns#"
   xmlns:svg="http://www.w3.org/2000/svg"
   xmlns="http://www.w3.org/2000/svg"
   xmlns:sodipodi="http://sodipodi.sourceforge.net/DTD/sodipodi-0.dtd"
   xmlns:inkscape="http://www.inkscape.org/namespaces/inkscape"
   width="30"
   height="15"
   viewBox="0 0 7.9374999 3.9687501"
   version="1.1"
   id="svg8"
   inkscape:version="0.92.4 (5da689c313, 2019-01-14)"
   sodipodi:docname="buy-subaccount2.svg">
  <title
     id="title821">buy-account</title>
  <defs
     id="defs2" />
  <sodipodi:namedview
     id="base"
     pagecolor="#ffffff"
     bordercolor="#666666"
     borderopacity="1.0"
     inkscape:pageopacity="0.0"
     inkscape:pageshadow="2"
     inkscape:zoom="22.4"
     inkscape:cx="9.7994144"
     inkscape:cy="8.6475306"
     inkscape:document-units="px"
     inkscape:current-layer="layer1"
     showgrid="false"
     units="px"
     inkscape:window-width="1858"
     inkscape:window-height="1057"
     inkscape:window-x="-8"
     inkscape:window-y="-8"
     inkscape:window-maximized="1"
     fit-margin-left="2"
     fit-margin-top="2"
     fit-margin-right="2"
     fit-margin-bottom="2">
    <inkscape:grid
       type="xygrid"
       id="grid815"
       originx="0.025274999"
       originy="-1.9744277" />
  </sodipodi:namedview>
  <metadata
     id="metadata5">
    <rdf:RDF>
      <cc:Work
         rdf:about="">
        <dc:format>image/svg+xml</dc:format>
        <dc:type
           rdf:resource="http://purl.org/dc/dcmitype/StillImage" />
        <dc:title>buy-account</dc:title>
      </cc:Work>
    </rdf:RDF>
  </metadata>
  <g
     inkscape:label="Layer 1"
     inkscape:groupmode="layer"
     id="layer1"
     transform="translate(0.025275,-291.05681)">
    <g
       id="g856"
       transform="translate(-0.01263744,0.00995713)">
      <path
         style="color:#000000;clip-rule:nonzero;display:inline;overflow:visible;visibility:visible;opacity:1;isolation:auto;mix-blend-mode:normal;color-interpolation:sRGB;color-interpolation-filters:linearRGB;solid-color:#000000;solid-opacity:1;vector-effect:none;fill:#000000;fill-opacity:1;fill-rule:evenodd;stroke:none;stroke-width:1.26797521;stroke-linecap:round;stroke-linejoin:round;stroke-miterlimit:4;stroke-dasharray:none;stroke-dashoffset:0;stroke-opacity:1;paint-order:markers fill stroke;color-rendering:auto;image-rendering:auto;shape-rendering:auto;text-rendering:auto;enable-background:accumulate"
         d="m 22.847656,3.0097656 c -1.16713,6e-6 -2.113275,0.9461508 -2.113281,2.1132813 6e-6,1.1671305 0.946151,2.1132752 2.113281,2.1132812 1.167131,-5.5e-6 2.113276,-0.9461504 2.113282,-2.1132812 -6e-6,-1.1671309 -0.946151,-2.1132758 -2.113282,-2.1132813 z m 0.002,4.5449219 c -1.502784,0 -2.513134,1.0116291 -3.091797,1.9375 -0.578661,0.9258335 -0.802734,1.8437495 -0.802734,1.8437505 -0.08225,0.332597 0.169053,0.653465 0.511719,0.654296 h 3.646484 c 0.0976,-0.296617 0.256035,-0.713962 0.570313,-1.216796 0.356754,-0.570823 0.908498,-1.1755176 1.669922,-1.4687505 C 24.922272,9.0305833 24.619475,8.5797367 24.541016,8.0527344 24.066956,7.7559145 23.508989,7.5546875 22.849609,7.5546875 Z m 2.503907,1.75 c -16.902344,3.7968825 -8.451172,1.8984415 0,0 z"
         transform="matrix(0.26458333,0,0,0.26458333,-0.01263756,291.04685)"
         id="path833"
         inkscape:connector-curvature="0"
         sodipodi:nodetypes="cccccscccccccscc" />
      <g
         style="stroke-width:0.19879864;stroke-miterlimit:4;stroke-dasharray:none"
         transform="matrix(0.94109633,-0.94109633,0.94109633,0.94109633,-275.37892,20.509919)"
         id="g859">
        <path
           style="fill:none;fill-rule:evenodd;stroke:#000000;stroke-width:0.19879864;stroke-linecap:round;stroke-linejoin:round;stroke-miterlimit:4;stroke-dasharray:none;stroke-opacity:1"
           d="m 3.6638866,292.64037 h -0.374175 l 0.9021214,0.90212"
           id="path827"
           inkscape:connector-curvature="0"
           sodipodi:nodetypes="ccc" />
        <path
           style="fill:none;fill-rule:evenodd;stroke:#000000;stroke-width:0.19879864;stroke-linecap:round;stroke-linejoin:round;stroke-miterlimit:4;stroke-dasharray:none;stroke-opacity:1"
           d="m 3.5897427,293.77036 h 0.374175 l -0.9021214,-0.90212"
           id="path827-2"
           inkscape:connector-curvature="0"
           sodipodi:nodetypes="ccc" />
      </g>
      <g
         transform="matrix(0.68254722,0,0,0.68254722,0.38948367,91.580484)"
         id="g1156">
        <circle
           style="fill:none;stroke:#000000;stroke-width:0.38764107;stroke-miterlimit:4;stroke-dasharray:none;stroke-opacity:1"
           id="path861"
           cx="1.816648"
           cy="295.14551"
           r="1.4552083" />
        <circle
           style="fill:none;stroke:#000000;stroke-width:0.23258464;stroke-linecap:butt;stroke-linejoin:miter;stroke-miterlimit:3;stroke-dasharray:0.23258464, 0.23258464;stroke-dashoffset:0;stroke-opacity:1;paint-order:normal"
           id="path861-0"
           cx="1.816648"
           cy="295.14551"
           r="0.91501731" />
      </g>
      <path
         inkscape:connector-curvature="0"
         style="color:#000000;clip-rule:nonzero;display:inline;overflow:visible;visibility:visible;opacity:1;isolation:auto;mix-blend-mode:normal;color-interpolation:sRGB;color-interpolation-filters:linearRGB;solid-color:#000000;solid-opacity:1;vector-effect:none;fill:#000000;fill-opacity:1;fill-rule:evenodd;stroke:none;stroke-width:0.2333716;stroke-linecap:round;stroke-linejoin:round;stroke-miterlimit:4;stroke-dasharray:none;stroke-dashoffset:0;stroke-opacity:1;paint-order:markers fill stroke;color-rendering:auto;image-rendering:auto;shape-rendering:auto;text-rendering:auto;enable-background:accumulate"
         d="m 6.9501989,292.7245 a 0.38895266,0.38895266 0 0 0 -0.3889506,0.38895 0.38895266,0.38895266 0 0 0 0.3889506,0.38896 0.38895266,0.38895266 0 0 0 0.3889508,-0.38896 0.38895266,0.38895266 0 0 0 -0.3889508,-0.38895 z m 3.681e-4,0.8365 c -0.2765883,0 -0.4625439,0.18619 -0.5690471,0.3566 -0.1065031,0.1704 -0.1477437,0.33934 -0.1477437,0.33934 -0.015138,0.0613 0.031115,0.12028 0.094182,0.12043 h 1.2444984 c 0.063305,2.1e-4 0.1097361,-0.0589 0.094542,-0.12043 0,0 -0.0416,-0.16894 -0.1481033,-0.33934 C 7.4123922,293.74719 7.2271556,293.561 6.950567,293.561 Z"
         id="path833-5" />
    </g>
  </g>
</svg>
