<svg xmlns="http://www.w3.org/2000/svg" width="60.913" height="20" viewBox="0 0 16.117 5.292"><path d="M2.411 5.278L.744.769A1.285 1.285 0 00.576.425.418.418 0 00.348.28L.008.175 0 .007C.247.015.536.02.867.02c.337 0 .684-.005 1.043-.013l.015.168-.351.1a.222.222 0 00-.109.057c-.022.022-.033.056-.033.101 0 .05.012.117.037.202.028.082.065.19.112.321L2.79 4.321 4.1.96c.052-.138.094-.248.123-.33A.65.65 0 004.27.43c0-.045-.012-.077-.037-.097A.236.236 0 004.127.28L3.78.186 3.772.008a20.605 20.605 0 001.619 0l.015.168-.378.12a.36.36 0 00-.198.127 1.794 1.794 0 00-.18.347L2.785 5.28zM6.879 4.11v.407l.007.333c.003.062.047.104.131.127l.423.13.007.176a36.509 36.509 0 00-1.854 0l-.015-.175.46-.139c.062-.019.096-.056.1-.116.003-.1.005-.21.005-.332.002-.125.004-.262.004-.412V1.078c0-.128-.002-.242-.004-.344 0-.103-.002-.195-.004-.277C6.136.392 6.106.35 6.049.33L5.586.184 5.578.007a27.517 27.517 0 001.854 0l.015.177-.463.138c-.06.014-.093.054-.098.116L6.88.726v.337zM8.083 5.29l-.015-.182L10.95.37H8.744l-.276.897-.15.028L8.124.03 8.15 0c.62.01 1.21.016 1.768.016h.882c.354 0 .71-.005 1.07-.016l.015.186L9.01 4.922h2.276l.501-1.01.169-.026-.101 1.379-.023.027c-.7-.008-1.323-.011-1.87-.011h-.9c-.349 0-.676.003-.98.01zM12.587 2.422h1.54V.882h.453v1.54h1.537v.452H14.58v1.537h-.452V2.874h-1.54z"/></svg>