<?xml version="1.0" encoding="UTF-8" standalone="no"?>
<!-- Created with Inkscape (http://www.inkscape.org/) -->

<svg
   xmlns:dc="http://purl.org/dc/elements/1.1/"
   xmlns:cc="http://creativecommons.org/ns#"
   xmlns:rdf="http://www.w3.org/1999/02/22-rdf-syntax-ns#"
   xmlns:svg="http://www.w3.org/2000/svg"
   xmlns="http://www.w3.org/2000/svg"
   xmlns:sodipodi="http://sodipodi.sourceforge.net/DTD/sodipodi-0.dtd"
   xmlns:inkscape="http://www.inkscape.org/namespaces/inkscape"
   width="30"
   height="15"
   viewBox="0 0 7.9374999 3.9687501"
   version="1.1"
   id="svg8"
   inkscape:version="0.92.4 (5da689c313, 2019-01-14)"
   sodipodi:docname="paid-subscription.svg">
  <title
     id="title821">paid-subscription</title>
  <defs
     id="defs2" />
  <sodipodi:namedview
     id="base"
     pagecolor="#ffffff"
     bordercolor="#666666"
     borderopacity="1.0"
     inkscape:pageopacity="0.0"
     inkscape:pageshadow="2"
     inkscape:zoom="44.8"
     inkscape:cx="15.186815"
     inkscape:cy="6.0436507"
     inkscape:document-units="px"
     inkscape:current-layer="g856"
     showgrid="true"
     units="px"
     inkscape:window-width="1858"
     inkscape:window-height="1057"
     inkscape:window-x="-8"
     inkscape:window-y="-8"
     inkscape:window-maximized="1"
     fit-margin-left="2"
     fit-margin-top="2"
     fit-margin-right="2"
     fit-margin-bottom="2">
    <inkscape:grid
       type="xygrid"
       id="grid815"
       originx="0.025274999"
       originy="-1.9744277" />
  </sodipodi:namedview>
  <metadata
     id="metadata5">
    <rdf:RDF>
      <cc:Work
         rdf:about="">
        <dc:format>image/svg+xml</dc:format>
        <dc:type
           rdf:resource="http://purl.org/dc/dcmitype/StillImage" />
        <dc:title>paid-subscription</dc:title>
      </cc:Work>
    </rdf:RDF>
  </metadata>
  <g
     inkscape:label="Layer 1"
     inkscape:groupmode="layer"
     id="layer1"
     transform="translate(0.025275,-291.05681)">
    <g
       id="g856"
       transform="translate(-0.01263744,0.00995713)">
      <g
         style="stroke-width:0.19879864;stroke-miterlimit:4;stroke-dasharray:none"
         transform="matrix(0.94109633,-0.94109633,0.94109633,0.94109633,-275.37892,20.509919)"
         id="g859">
        <path
           style="fill:none;fill-rule:evenodd;stroke:#000000;stroke-width:0.19879864;stroke-linecap:round;stroke-linejoin:round;stroke-miterlimit:4;stroke-dasharray:none;stroke-opacity:1"
           d="m 3.6638866,292.64037 h -0.374175 l 0.9021214,0.90212"
           id="path827"
           inkscape:connector-curvature="0"
           sodipodi:nodetypes="ccc" />
        <path
           style="fill:none;fill-rule:evenodd;stroke:#000000;stroke-width:0.19879864;stroke-linecap:round;stroke-linejoin:round;stroke-miterlimit:4;stroke-dasharray:none;stroke-opacity:1"
           d="m 3.5897427,293.77036 h 0.374175 l -0.9021214,-0.90212"
           id="path827-2"
           inkscape:connector-curvature="0"
           sodipodi:nodetypes="ccc" />
      </g>
      <g
         transform="matrix(0.68254722,0,0,0.68254722,0.38948367,91.580482)"
         id="g1156">
        <circle
           style="fill:none;stroke:#000000;stroke-width:0.38764107;stroke-miterlimit:4;stroke-dasharray:none;stroke-opacity:1"
           id="path861"
           cx="1.816648"
           cy="295.14551"
           r="1.4552083" />
        <circle
           style="fill:none;stroke:#000000;stroke-width:0.23258464;stroke-linecap:butt;stroke-linejoin:miter;stroke-miterlimit:3;stroke-dasharray:0.23258464, 0.23258464;stroke-dashoffset:0;stroke-opacity:1;paint-order:normal"
           id="path861-0"
           cx="1.816648"
           cy="295.14551"
           r="0.91501731" />
      </g>
      <path
         style="color:#000000;font-style:normal;font-variant:normal;font-weight:normal;font-stretch:normal;font-size:medium;line-height:normal;font-family:sans-serif;font-variant-ligatures:normal;font-variant-position:normal;font-variant-caps:normal;font-variant-numeric:normal;font-variant-alternates:normal;font-feature-settings:normal;text-indent:0;text-align:start;text-decoration:none;text-decoration-line:none;text-decoration-style:solid;text-decoration-color:#000000;letter-spacing:normal;word-spacing:normal;text-transform:none;writing-mode:lr-tb;direction:ltr;text-orientation:mixed;dominant-baseline:auto;baseline-shift:baseline;text-anchor:start;white-space:normal;shape-padding:0;clip-rule:nonzero;display:inline;overflow:visible;visibility:visible;opacity:1;isolation:auto;mix-blend-mode:normal;color-interpolation:sRGB;color-interpolation-filters:linearRGB;solid-color:#000000;solid-opacity:1;vector-effect:none;fill:#000000;fill-opacity:1;fill-rule:nonzero;stroke:none;stroke-width:0.22729115;stroke-linecap:round;stroke-linejoin:round;stroke-miterlimit:4;stroke-dasharray:none;stroke-dashoffset:0;stroke-opacity:1;paint-order:stroke fill markers;color-rendering:auto;image-rendering:auto;shape-rendering:auto;text-rendering:auto;enable-background:accumulate"
         d="m 5.8629113,291.99448 a 0.05682848,0.05682848 0 0 0 -0.00444,4.5e-4 0.05682848,0.05682848 0 0 0 -0.046612,0.0568 v 0.19489 H 5.3213192 a 0.11365694,0.11365694 0 0 0 -0.02264,-0.003 v 4.5e-4 a 0.11365694,0.11365694 0 0 0 -0.011098,4.4e-4 0.11365694,0.11365694 0 0 0 -0.031519,0.0102 0.11365694,0.11365694 0 0 0 -0.030187,0.0164 0.11365694,0.11365694 0 0 0 -0.0071,0.009 0.11365694,0.11365694 0 0 0 -0.00799,0.009 0.11365694,0.11365694 0 0 0 -0.0071,0.009 0.11365694,0.11365694 0 0 0 0,0.002 0.11365694,0.11365694 0 0 0 -0.00488,0.009 0.11365694,0.11365694 0 0 0 0,0.002 0.11365694,0.11365694 0 0 0 -0.00488,0.009 0.11365694,0.11365694 0 0 0 0,0.002 0.11365694,0.11365694 0 0 0 -0.00355,0.009 0.11365694,0.11365694 0 0 0 0,0.002 0.11365694,0.11365694 0 0 0 -0.00311,0.0435 v 1.57905 a 0.11365694,0.11365694 0 0 0 0.1140895,0.11232 h 2.0451765 a 0.11365694,0.11365694 0 0 0 0.1140895,-0.11232 V 292.3633 A 0.11365694,0.11365694 0 0 0 7.3465189,292.24663 H 6.8351137 v -0.19488 a 0.05682848,0.05682848 0 0 0 -0.056823,-0.0568 H 5.8686823 a 0.05682848,0.05682848 0 0 0 -0.00577,-4.5e-4 z m 0.063038,0.11276 h 0.7950752 v 0.13939 H 5.9259491 Z m -0.4674563,0.3658 H 7.188481 L 6.8546471,292.9729 H 5.790995 Z m 1.7739366,0.18067 v 1.18352 H 5.4154318 v -1.18307 l 0.2832262,0.4244 a 0.06819417,0.06819417 0 0 0 0.057267,0.0319 h 0.3977595 v 0.15761 a 0.05682848,0.05682848 0 0 0 0.056823,0.0573 h 0.2264034 a 0.05682848,0.05682848 0 0 0 0.057267,-0.0573 v -0.15761 h 0.3977596 a 0.06819417,0.06819417 0 0 0 0.056823,-0.0319 z m -0.9646557,0.4568 h 0.1123138 v 0.10078 h -0.112314 z"
         id="path2061"
         inkscape:connector-curvature="0" />
    </g>
  </g>
</svg>
